<?xml version="1.0" standalone="no"?>
<!DOCTYPE svg PUBLIC "-//W3C//DTD SVG 20010904//EN"
 "http://www.w3.org/TR/2001/REC-SVG-20010904/DTD/svg10.dtd">
<svg version="1.0" xmlns="http://www.w3.org/2000/svg"
 width="219.000000pt" height="230.000000pt" viewBox="0 0 219.000000 230.000000"
 preserveAspectRatio="xMidYMid meet">

<g transform="translate(0.000000,230.000000) scale(0.100000,-0.100000)"
fill="#000000" stroke="none">
<path d="M1803 2231 c-12 -7 -33 -46 -33 -59 0 -6 17 -8 38 -5 26 3 52 -1 80
-14 52 -24 45 -37 -10 -17 -22 8 -55 14 -72 14 -17 0 -48 9 -69 20 -75 40 -89
20 -24 -35 32 -28 43 -33 45 -21 4 19 16 20 43 5 11 -5 42 -11 70 -11 44 -1
50 -4 45 -20 -6 -24 13 -31 54 -21 65 17 64 69 -1 56 -22 -4 -27 -1 -33 20 -3
14 -4 32 -1 39 11 27 -19 49 -71 52 -28 2 -56 1 -61 -3z"/>
<path d="M1670 1979 c-19 -4 -29 -7 -22 -8 17 -1 16 -86 -1 -103 -8 -7 -14
-20 -15 -28 -1 -8 -5 -35 -8 -60 -4 -25 -3 -42 1 -38 4 3 26 1 50 -7 24 -7 47
-10 50 -7 3 4 3 -2 -1 -11 -4 -10 -12 -16 -19 -14 -7 3 -11 -3 -10 -16 1 -11
7 -23 15 -25 7 -3 10 0 6 7 -10 15 0 14 29 -5 13 -9 29 -31 35 -50 7 -20 27
-51 46 -69 39 -39 41 -54 15 -112 -22 -48 -55 -79 -107 -102 l-37 -16 34 -19
c32 -17 37 -17 73 -2 21 9 40 25 43 36 3 11 9 17 14 15 4 -3 14 7 22 22 19 37
17 201 -3 213 -17 10 -24 158 -8 177 5 7 13 41 15 75 3 35 10 65 15 67 5 1 1
10 -9 18 -11 9 -12 12 -3 8 8 -4 6 1 -4 9 -17 14 -21 14 -36 1 -20 -18 -31
-19 -65 -3 -16 7 -25 19 -25 34 0 25 -12 27 -90 13z"/>
<path d="M1589 1913 l-24 -28 28 24 c25 23 32 31 24 31 -2 0 -14 -12 -28 -27z"/>
<path d="M1545 1870 c-3 -5 -1 -10 4 -10 6 0 11 5 11 10 0 6 -2 10 -4 10 -3 0
-8 -4 -11 -10z"/>
<path d="M1224 1845 c-4 -9 -13 -14 -20 -11 -7 3 -27 -2 -45 -11 -37 -19 -235
-34 -404 -32 -174 3 -206 0 -235 -21 -30 -21 -43 -64 -34 -110 6 -28 4 -30
-22 -30 -15 0 -54 7 -87 17 -49 13 -69 14 -118 5 -40 -7 -81 -8 -126 -1 -38 5
-83 11 -101 14 l-32 4 0 -149 0 -148 59 19 c88 27 223 42 329 37 l93 -5 -6 24
c-7 28 4 93 15 93 12 0 22 -33 12 -39 -5 -3 -9 -24 -10 -45 -1 -36 0 -38 12
-20 7 10 16 29 20 40 4 12 16 24 26 27 25 7 26 27 1 27 -26 0 -34 45 -11 65
10 9 16 24 13 34 -6 25 11 35 27 16 15 -18 42 -19 58 -3 19 19 14 54 -10 71
-23 15 -23 15 -3 35 11 11 30 23 43 27 19 6 22 3 22 -24 0 -48 20 -82 53 -88
26 -5 28 -9 23 -35 -7 -34 15 -48 45 -30 27 17 46 15 78 -8 22 -17 32 -19 54
-11 43 17 37 56 -13 81 -40 20 -56 49 -48 87 5 25 51 39 83 25 21 -10 25 -18
25 -56 0 -27 6 -48 15 -56 9 -7 13 -21 10 -31 -16 -50 27 -77 71 -44 25 19 32
19 39 -4 3 -11 12 -22 20 -25 9 -3 12 0 8 10 -3 7 0 14 6 14 6 0 11 11 11 25
0 15 7 39 15 55 13 25 22 30 51 30 27 0 41 7 56 25 11 14 25 25 31 25 7 0 6
-4 -3 -10 -12 -8 -12 -10 5 -10 20 -1 20 -1 1 -15 -19 -14 -19 -15 7 -15 33 0
37 28 7 55 -11 10 -17 22 -14 27 3 5 9 7 12 4 6 -7 32 13 32 25 0 5 -14 9 -31
9 -23 0 -30 4 -25 15 4 10 -3 17 -22 21 -15 3 -35 8 -45 11 -10 2 -20 -2 -23
-12z m-704 -156 c0 -37 -4 -58 -10 -54 -18 11 -12 115 7 115 2 0 3 -27 3 -61z"/>
<path d="M1486 1797 c-18 -13 -18 -15 -1 -41 19 -29 53 -51 63 -42 3 3 0 6 -7
6 -7 0 -9 5 -6 10 4 6 1 19 -6 28 -7 9 -9 14 -5 10 5 -4 15 -3 23 3 10 9 10
15 2 25 -14 18 -40 18 -63 1z"/>
<path d="M1970 1731 c0 -6 5 -13 10 -16 6 -3 10 1 10 9 0 9 -4 16 -10 16 -5 0
-10 -4 -10 -9z"/>
<path d="M1986 1663 c-6 -14 -5 -15 5 -6 7 7 10 15 7 18 -3 3 -9 -2 -12 -12z"/>
<path d="M1665 1650 c-11 -4 -25 -5 -32 -3 -13 5 -28 -32 -18 -46 3 -5 1 -12
-4 -16 -7 -4 -7 -15 -1 -31 6 -14 7 -31 3 -37 -4 -6 -8 -31 -9 -56 l-2 -46 79
5 c47 3 84 1 90 -5 7 -7 16 -2 29 15 25 32 36 88 21 103 -8 8 -11 4 -11 -14 0
-31 -18 -55 -47 -62 -15 -3 -20 -1 -16 9 3 7 10 12 16 11 8 -1 12 16 12 48 l0
50 -38 -1 c-21 -1 -48 -9 -60 -20 -13 -10 -10 -7 5 9 18 17 39 27 58 27 18 0
30 5 30 13 0 19 -43 63 -48 49 -2 -8 -10 -9 -20 -3 -9 5 -26 5 -37 1z"/>
<path d="M1925 1612 c-2 -2 -1 -11 2 -19 3 -8 1 -18 -6 -22 -6 -4 11 -8 39 -8
31 0 46 3 38 8 -11 7 -11 9 0 9 8 0 12 8 10 17 -2 12 -14 17 -41 18 -21 0 -40
-1 -42 -3z"/>
<path d="M1198 1603 c7 -3 16 -2 19 1 4 3 -2 6 -13 5 -11 0 -14 -3 -6 -6z"/>
<path d="M1418 1603 c6 -2 18 -2 25 0 6 3 1 5 -13 5 -14 0 -19 -2 -12 -5z"/>
<path d="M2028 1603 c6 -2 18 -2 25 0 6 3 1 5 -13 5 -14 0 -19 -2 -12 -5z"/>
<path d="M2088 1603 c7 -3 16 -2 19 1 4 3 -2 6 -13 5 -11 0 -14 -3 -6 -6z"/>
<path d="M1097 1509 c-34 -52 -34 -62 1 -55 15 2 44 7 65 11 29 5 37 10 33 21
-3 9 -6 18 -6 20 0 3 -5 2 -10 -1 -14 -9 -62 23 -55 35 4 6 4 10 2 10 -2 0
-15 -18 -30 -41z"/>
<path d="M682 1495 c-11 -23 -5 -72 9 -81 8 -5 191 11 235 21 17 4 19 10 16
39 l-4 35 -35 -14 c-49 -21 -131 -19 -175 3 -36 19 -36 19 -46 -3z"/>
<path d="M1288 1493 c6 -2 18 -2 25 0 6 3 1 5 -13 5 -14 0 -19 -2 -12 -5z"/>
<path d="M1007 1483 c-11 -10 -8 -43 3 -43 6 0 10 11 10 25 0 26 -2 29 -13 18z"/>
<path d="M548 1446 c-16 -21 -16 -25 -2 -30 19 -7 104 -8 104 -1 0 3 -8 14
-17 24 -15 19 -17 19 -29 3 -12 -15 -13 -15 -14 6 0 29 -20 28 -42 -2z"/>
<path d="M1930 1400 c0 -14 -7 -34 -15 -44 -8 -10 -12 -23 -9 -27 3 -5 0 -9
-6 -9 -7 0 -9 -7 -6 -16 3 -8 2 -13 -2 -10 -5 3 -30 -6 -56 -19 -40 -20 -44
-25 -29 -34 16 -8 18 -25 18 -130 l0 -121 48 0 c42 0 48 2 43 18 -3 9 -8 73
-10 141 -4 120 -3 126 20 156 25 33 31 79 14 105 -8 12 -10 10 -10 -10z"/>
<path d="M1708 1387 c-42 -25 -66 -72 -75 -149 -5 -44 -4 -48 15 -48 11 0 28
-3 37 -6 15 -6 16 1 9 67 -4 41 -11 77 -17 80 -5 4 1 10 14 14 31 10 79 44 79
56 0 15 -22 10 -62 -14z"/>
<path d="M677 1373 c-15 -14 -6 -23 24 -23 27 0 30 2 19 15 -13 16 -32 19 -43
8z"/>
<path d="M1045 1340 c3 -5 17 -10 31 -10 14 0 22 4 19 10 -3 6 -17 10 -31 10
-14 0 -22 -4 -19 -10z"/>
<path d="M518 1323 c-27 -7 -22 -23 7 -23 16 0 25 6 25 15 0 15 -2 16 -32 8z"/>
<path d="M960 1300 c0 -5 9 -10 19 -10 11 0 23 5 26 10 4 6 -5 10 -19 10 -14
0 -26 -4 -26 -10z"/>
<path d="M1496 1194 c-5 -12 -2 -15 10 -10 8 3 20 6 25 6 5 0 9 5 9 10 0 16
-37 11 -44 -6z"/>
<path d="M1498 1173 c-10 -2 -18 -9 -18 -15 0 -6 10 -8 23 -4 12 3 34 6 50 6
15 0 27 5 27 10 0 10 -49 12 -82 3z"/>
<path d="M1620 1170 c0 -5 8 -10 19 -10 10 0 21 -9 24 -20 3 -13 0 -20 -9 -20
-8 0 -14 -5 -14 -10 0 -6 11 -8 26 -4 19 5 25 4 20 -5 -4 -6 -11 -9 -16 -6 -5
3 -11 1 -15 -5 -3 -5 -1 -10 4 -10 6 0 11 -4 11 -10 0 -5 -7 -10 -15 -10 -9 0
-15 -9 -15 -24 0 -30 -26 -54 -42 -38 -8 8 -7 13 5 18 27 10 -4 32 -55 40 -23
4 -51 11 -60 16 -16 8 -18 4 -18 -30 0 -36 3 -40 30 -45 18 -4 30 -13 30 -22
0 -12 -7 -14 -27 -9 -22 4 -25 3 -13 -5 8 -6 35 -11 60 -11 35 0 50 5 65 22
13 16 20 19 23 9 2 -7 -2 -17 -9 -22 -9 -6 -1 -9 26 -9 22 0 45 4 51 8 18 11
29 152 13 152 -8 0 -5 6 7 15 18 14 18 14 -5 15 -16 0 -21 4 -18 14 4 9 -3 16
-16 20 -34 9 -67 7 -67 -4z m-35 -179 c3 -5 1 -12 -5 -16 -5 -3 -10 1 -10 9 0
18 6 21 15 7z"/>
<path d="M1470 1131 c0 -12 26 -19 88 -25 58 -5 62 10 4 17 -26 4 -57 9 -69
13 -14 4 -23 2 -23 -5z"/>
<path d="M1900 950 c0 -5 14 -10 31 -10 17 0 28 4 24 10 -3 6 -17 10 -31 10
-13 0 -24 -4 -24 -10z"/>
<path d="M1669 937 c-30 -8 -36 -14 -36 -38 0 -26 4 -29 34 -29 18 0 35 6 37
13 12 36 15 67 9 66 -5 -1 -24 -6 -44 -12z m11 -21 c0 -2 -7 -6 -15 -10 -8 -3
-15 -1 -15 4 0 6 7 10 15 10 8 0 15 -2 15 -4z"/>
<path d="M1856 903 c-14 -8 -26 -18 -26 -23 0 -12 137 -14 144 -2 18 30 -72
49 -118 25z"/>
<path d="M1490 897 c0 -20 23 -27 78 -26 26 1 38 4 27 6 -11 3 -22 9 -25 13
-3 4 -22 10 -42 14 -30 5 -38 4 -38 -7z"/>
<path d="M268 753 c-23 -2 -49 -16 -69 -34 -31 -28 -31 -31 -27 -105 4 -87 17
-104 98 -124 25 -7 53 -14 63 -17 15 -4 17 6 17 101 l0 106 -30 0 c-31 0 -80
19 -80 31 0 10 57 29 86 29 13 0 24 -4 24 -10 0 -14 47 -13 52 1 2 7 20 8 52
4 29 -5 43 -11 36 -15 -9 -6 -8 -9 6 -13 17 -4 17 -6 -3 -12 -24 -8 -29 -20
-13 -30 6 -3 10 -44 10 -91 0 -46 2 -84 5 -84 2 0 16 5 30 12 20 9 25 18 25
49 0 23 5 39 15 43 35 13 8 119 -35 141 -30 15 -194 27 -262 18z"/>
<path d="M765 721 c-11 -5 -36 -7 -56 -4 -20 3 -45 0 -55 -6 -15 -8 -3 -10 53
-8 39 1 69 -1 66 -5 -2 -5 16 -8 41 -8 25 0 47 4 50 8 3 5 19 7 36 4 16 -2 30
0 30 4 0 5 -12 10 -27 11 -16 0 -48 4 -73 7 -25 3 -54 2 -65 -3z"/>
<path d="M940 710 c0 -6 12 -10 27 -10 29 0 24 12 -7 17 -11 2 -20 -2 -20 -7z"/>
<path d="M1541 682 c-13 -24 11 -77 54 -119 29 -29 41 -33 85 -33 35 0 52 4
56 15 3 8 14 17 23 20 35 11 77 114 52 129 -5 4 -7 -3 -4 -13 3 -12 -2 -23
-14 -29 -34 -19 -139 -25 -193 -12 -47 11 -51 15 -47 36 5 28 1 31 -12 6z m43
-82 c10 -13 9 -13 -6 -1 -10 7 -18 21 -17 30 0 13 1 14 6 1 3 -8 11 -22 17
-30z"/>
<path d="M1440 605 c0 -8 2 -15 4 -15 2 0 6 7 10 15 3 8 1 15 -4 15 -6 0 -10
-7 -10 -15z"/>
<path d="M641 599 c-66 -9 -85 -24 -47 -39 34 -12 57 -13 76 0 13 8 12 10 -4
10 -38 0 -8 11 45 16 54 5 78 13 43 15 -10 0 -28 2 -39 3 -11 1 -44 -1 -74 -5z"/>
<path d="M581 452 c-1 -10 -43 -13 -201 -11 -110 1 -202 0 -205 -2 -2 -3 4
-13 15 -22 11 -9 20 -12 20 -7 0 6 11 10 25 10 l25 0 0 -207 c0 -138 4 -203
10 -193 5 8 10 75 10 148 0 124 1 132 18 123 10 -5 62 -10 117 -11 86 -1 152
-3 156 -4 1 -1 5 -64 8 -141 l8 -140 1 154 c2 126 4 151 15 143 9 -8 156 -11
476 -11 310 0 467 -4 476 -11 9 -7 16 -6 25 5 7 8 16 15 21 15 5 0 10 -64 11
-142 l2 -143 6 140 5 140 102 0 c63 0 106 4 113 11 7 7 11 35 8 68 l-3 56 41
0 c28 0 44 -5 48 -15 3 -8 0 -15 -7 -15 -8 0 -8 -3 2 -9 11 -7 13 -44 9 -195
-2 -102 0 -186 4 -186 4 0 8 99 8 220 l0 220 -37 0 c-21 0 -327 0 -680 0 -508
0 -642 2 -646 12 -4 10 -6 10 -6 0z m64 -42 c-3 -5 -16 -10 -28 -10 -18 0 -19
2 -7 10 20 13 43 13 35 0z"/>
<path d="M209 295 c-3 -11 -6 -65 -8 -120 -1 -55 -4 -111 -7 -125 -2 -14 -1
-18 2 -10 4 8 11 18 16 21 5 3 7 61 6 130 -2 68 -6 115 -9 104z"/>
<path d="M1892 245 c0 -16 2 -22 5 -12 2 9 2 23 0 30 -3 6 -5 -1 -5 -18z"/>
<path d="M545 229 c-4 -6 -4 -13 -1 -16 3 -4 6 -1 6 6 0 7 5 9 12 5 7 -4 8 -3
4 4 -9 15 -13 15 -21 1z"/>
<path d="M1546 225 c-3 -9 -5 -51 -4 -93 l1 -77 6 90 c7 97 7 104 -3 80z"/>
<path d="M511 44 c0 -11 3 -14 6 -6 3 7 2 16 -1 19 -3 4 -6 -2 -5 -13z"/>
</g>
</svg>
